<?xml version="1.0" encoding="UTF-8"?>
<svg id="Layer_1" xmlns="http://www.w3.org/2000/svg" width="500" height="500" version="1.1" viewBox="0 0 500 500">
  <!-- Generator: Adobe Illustrator 30.0.0, SVG Export Plug-In . SVG Version: 2.1.1 Build 123)  -->
  <g>
    <path d="M358.97,267.91c7.18-12.25,10.8-24.02,11.13-35.81.63-22.26-10.42-44.47-33.83-67.97L200.52,28.43c-13.43-13.43-35.21-13.43-48.64,0l-42.84,42.81s0,0,0,0c-6.46,6.46-10.08,15.21-10.08,24.34,0,9.13,3.63,17.89,10.09,24.34l82.53,82.4.29.29c3.49,3.54,5.69,7.87,6.6,12.42,1.58,7.84-.66,16.3-6.74,22.38-6.09,6.09-14.57,8.33-22.43,6.73-3.01-.61-5.93-1.79-8.59-3.53-.11-.07-.21-.15-.32-.23-6.51-4.34-14.36-6.41-22.28-5.67-10.19.95-19.44,6.4-25.21,14.86l-34.55,50.62c-9.31,13.64-7.61,31.98,4.05,43.68l36.99,37.13c23.48,23.55,45.78,34.62,67.98,33.86,21.8-.62,43.51-12.43,68.31-37.18.01-.01.03-.03.04-.04l77.05-77.1c11.43-11.43,20.11-22.2,26.22-32.62M335.71,231.12c-.35,12.25-9.41,27.2-27.29,45.09l-77.05,77.11c-17.83,17.78-32.83,26.8-45,27.15-12.32.42-26.49-7.58-42.63-23.77l-36.98-37.12,34.55-50.62,25.88,25.88,82.88-82.72-116.72-116.54,42.84-42.81,135.76,135.7c16.14,16.2,24.1,30.44,23.76,42.66Z"/>
    <polygon points="174.71 302.35 195.18 322.86 277.95 240.09 257.46 219.67 174.71 302.35"/>
  </g>
  <g>
    <path d="M235.31,460.81l-10.84,10.84-7.96-7.96-5.83,8.61,5.89,5.89c2.62,2.62,4.87,3.86,6.88,3.78,1.98-.08,4.25-1.41,6.92-4.08l11.18-11.18c2.67-2.67,4.01-4.94,4.08-6.92.08-2.01-1.16-4.26-3.78-6.88l-20.51-20.51-7.22,7.22,21.2,21.2Z"/>
    <path d="M247.37,406.35l-6.54,6.54,11.83,42.68,7.4-7.4-2.68-8.75,15.86-15.86,8.8,2.57h.05s8.17-8.15,8.17-8.15l-42.84-11.61h-.05ZM264.24,420.84l-9.5,9.5-4-13.66,13.5,4.16Z"/>
    <polygon points="298.81 355.14 298.86 354.86 288.06 365.66 284.66 389.66 274.36 379.36 267.09 386.63 294.34 413.89 301.62 406.61 290.7 395.7 316.45 391.75 316.48 391.75 328.24 379.99 293.62 385.84 298.81 355.14"/>
    <path d="M345.41,343.1c2.94-2.94,5.47-7.42.81-12.08l-6.12-6.12c-4.66-4.66-9.14-2.13-12.08.81l-22.93,22.93,27.25,27.25,7.12-7.12-9.86-9.86,4.96-4.96,20.35-.66h.04s10.54-10.54,10.54-10.54l-21.9,2.17,1.82-1.82ZM338.53,338.3c-.07.25-.36.82-1.46,1.93l-13.08,13.08-6.18-6.18,13.08-13.08c1.18-1.18,1.75-1.41,1.9-1.45.51-.13,1.1.15,1.77.81l3.16,3.16c.66.66.94,1.25.82,1.74Z"/>
    <path d="M368.55,285.17l-19.22,19.22c-2.67,2.67-4,4.93-4.08,6.92-.09,2.01,1.15,4.26,3.78,6.89l13.76,13.76c2.62,2.62,4.87,3.86,6.88,3.78,1.98-.08,4.24-1.41,6.92-4.08l19.22-19.22c2.67-2.67,4.01-4.94,4.08-6.92.08-2.01-1.16-4.26-3.78-6.88l-13.76-13.76c-2.62-2.62-4.87-3.86-6.88-3.78-1.99.07-4.25,1.41-6.92,4.08ZM374.19,291.15l15.39,15.39-18.88,18.88-15.39-15.39,18.88-18.88Z"/>
    <path d="M412.87,243.69c-1.99.08-4.25,1.41-6.92,4.08l-19.22,19.22c-2.67,2.67-4.01,4.93-4.08,6.92-.08,2.01,1.15,4.26,3.78,6.88l13.76,13.76c2.62,2.62,4.87,3.86,6.88,3.78,1.98-.08,4.25-1.41,6.92-4.09l19.22-19.22c2.67-2.67,4.01-4.94,4.08-6.92.07-2.01-1.16-4.26-3.78-6.88l-13.76-13.76c-2.62-2.62-4.87-3.86-6.88-3.78ZM411.58,253.76l15.39,15.39-18.88,18.88-15.39-15.39,18.88-18.88Z"/>
  </g>
</svg>