<svg width="358px" height="47px" viewBox="0 0 358 47" version="1.1" xmlns="http://www.w3.org/2000/svg" xmlns:xlink="http://www.w3.org/1999/xlink">
    <defs>
        <polygon id="path-1" points="0 0.244100541 34.456191 0.244100541 34.456191 30.6160249 0 30.6160249"></polygon>
    </defs>
    <g id="Symbols" stroke="none" stroke-width="1" fill="none" fill-rule="evenodd">
        <g id="Branding/Primary">
            <g id="Group-84">
                <path d="M28.6660536,35.238053 C27.2126051,41.6936097 21.5716606,44.9229827 13.0036324,44.9229827 C4.43749674,44.9229827 0.251893216,41.6936097 1.70660335,35.238053 L5.71620335,17.4232422 L16.9564571,17.4232422 L13.0458985,34.7909286 C12.5727707,36.9085503 13.4471108,37.7230692 14.6261452,37.7230692 C15.8058104,37.7230692 17.0491901,36.9085503 17.5273646,34.7909286 L21.4372923,17.4232422 L32.6756536,17.4232422 L28.6660536,35.238053 Z" id="Fill-1" fill="#FEFEFE"></path>
                <g id="Group-5" transform="translate(0.000000, 15.742922)">
                    <mask id="mask-2" fill="white">
                        <use xlink:href="#path-1"></use>
                    </mask>
                    <g id="Clip-4"></g>
                    <path d="M6.85013286,3.11692216 L3.09160599,19.8142411 C2.60144564,21.9918195 2.84368705,23.7190843 3.81328352,24.94756 C5.25600775,26.7768789 8.43416458,27.7432032 13.0039478,27.7432032 C18.6373223,27.7432032 25.686295,26.2570411 27.2810509,19.1764032 L30.8951161,3.11692216 L22.5712219,3.11692216 L18.9129981,19.3671168 C18.2386333,22.3528357 16.2565434,23.4167492 14.6264606,23.4167492 C13.6145981,23.4167492 12.7459355,23.0238411 12.1819672,22.3094627 C11.4981399,21.4445546 11.3227672,20.2409546 11.660265,18.7311924 L15.1759196,3.11692216 L6.85013286,3.11692216 Z M13.0039478,30.6160249 C7.46141392,30.6160249 3.62150907,29.3116465 1.59210643,26.7392465 C0.056018326,24.7932032 -0.371058326,22.2482303 0.321600705,19.1764032 L4.58227383,0.244100541 L18.7363637,0.244100541 L14.431532,19.3671168 C14.2662527,20.1063708 14.3552007,20.4501654 14.400621,20.514587 C14.4018826,20.5171384 14.4655972,20.5439276 14.6264606,20.5439276 C15.329213,20.5439276 15.8818263,19.8818519 16.1423619,18.7286411 L20.3033628,0.244100541 L34.456191,0.244100541 L30.0510562,19.8142411 C28.4827954,26.7800681 22.4286527,30.6160249 13.0039478,30.6160249 L13.0039478,30.6160249 Z" id="Fill-3" fill="#FEFEFE" mask="url(#mask-2)"></path>
                </g>
                <path d="M49.23973,25.0314357 C49.5740737,23.3609384 48.7167662,22.8053816 47.2633177,22.8053816 C45.454708,22.8053816 44.5034058,23.5478249 44.3198322,24.3636195 C44.1009318,25.3280303 44.676886,25.7362465 45.7808507,26.0730249 C47.8089917,26.6649384 51.6116772,27.4086573 54.2189265,28.5567654 C57.4803538,29.9657492 58.5086181,32.3799654 57.7800014,35.6093384 C56.3013195,42.1771546 50.0270146,44.9230465 42.0097071,44.9230465 C35.1695415,44.9230465 29.3324067,42.9195978 30.9057142,35.9429276 L41.6747327,35.9429276 C41.5056684,36.684733 41.495575,37.4271762 41.8009001,37.9814573 C42.1175803,38.5032086 42.7515715,38.8380735 43.8113776,38.8380735 C45.4622781,38.8380735 46.7485547,37.8353924 47.0153988,36.6471005 C47.2418693,35.6456951 46.5315468,35.1258573 45.5392402,34.827987 L38.0650833,32.6032086 C33.975367,31.3760086 33.0045089,28.8922681 33.7823309,25.4377384 C35.0339115,19.8751546 40.4988525,16.7184951 48.7905741,16.7184951 C55.8654111,16.7184951 60.7007767,18.7965708 59.2990569,25.0314357 L49.23973,25.0314357 Z" id="Fill-6" fill="#FEFEFE"></path>
                <path d="M45.8193949,24.5698324 C45.9108663,24.6061892 46.0313561,24.6489243 46.190327,24.6974 C46.6211887,24.8230541 47.1738019,24.9652919 47.7730971,25.1151838 L47.846905,24.7465135 C47.8916944,24.5239081 47.8942178,24.386773 47.8891711,24.3134216 C47.8014848,24.2847189 47.6128645,24.2413459 47.2633808,24.2413459 C46.4395077,24.2413459 46.0073843,24.4320595 45.8193949,24.5698324 L45.8193949,24.5698324 Z M43.0424504,37.2806649 C43.0563288,37.2806649 43.264505,37.4018541 43.8114407,37.4018541 C44.7564345,37.4018541 45.4497244,36.902427 45.6112187,36.3972595 C45.5292099,36.3494216 45.3822248,36.2792595 45.1355676,36.2052703 L43.2039447,35.6305784 L43.0588522,36.2658649 C42.9345773,36.8118541 42.9717967,37.154373 43.0418196,37.2813027 C43.0418196,37.2806649 43.0418196,37.2806649 43.0424504,37.2806649 L43.0424504,37.2806649 Z M32.1037367,37.3795297 C31.9567517,38.8044595 32.2292733,39.9378973 32.926979,40.8213027 C34.3022037,42.5651514 37.4425103,43.4861892 42.0091394,43.4861892 C47.7302002,43.4861892 54.8693826,42.0644486 56.3947464,35.2906108 C56.9965649,32.6238108 56.1531359,30.955227 53.6606989,29.8779189 C51.9176962,29.1099622 49.5249315,28.5129459 47.6027711,28.0326541 C46.7820522,27.8272703 46.0067535,27.6340054 45.3866407,27.4534973 C42.8904187,26.6925568 42.6771958,25.1789676 42.9345773,24.0423405 C43.226024,22.7507189 44.5160856,21.3685243 47.2633808,21.3685243 C48.5559658,21.3685243 49.5148381,21.743573 50.1135024,22.4834649 C50.3746689,22.805573 50.5531958,23.1774324 50.649083,23.5952162 L58.0948522,23.5952162 C58.2096645,22.3380378 57.9655306,21.3430108 57.3574037,20.5725027 C56.1089773,18.9906649 53.1459359,18.1544595 48.7900063,18.1544595 C41.2199623,18.1544595 36.2546442,20.925227 35.1677121,25.7562108 C34.4876698,28.7757351 35.4131077,30.3090973 38.4688821,31.2263081 L45.9405156,33.4504486 C48.7691887,34.298773 48.5383024,36.3564378 48.4007799,36.9674865 C47.9705491,38.8822757 46.0401878,40.2746757 43.8114407,40.2746757 C41.9220839,40.2746757 41.0168328,39.4365568 40.5897561,38.7323838 C40.3601315,38.3171514 40.2194548,37.8674757 40.1633103,37.3795297 L32.1037367,37.3795297 Z M42.0091394,46.3590108 C36.4697596,46.3590108 32.6664433,45.0992811 30.7058019,42.613627 C29.2807411,40.8072703 28.8814213,38.4562 29.5204592,35.6235622 L29.7721632,34.5067081 L39.4283852,34.5067081 L37.6633033,33.9811297 C33.1484028,32.6263622 31.3776433,29.6451081 32.3970759,25.118373 C33.8038425,18.8675622 39.7784997,15.2816378 48.7900063,15.2816378 C54.1912328,15.2816378 57.7195041,16.4259189 59.57795,18.7801784 C60.9121702,20.4704486 61.2843641,22.6805568 60.6844381,25.3499081 L60.4333649,26.4680378 L52.7308451,26.4680378 C53.4518918,26.7034 54.1489667,26.959173 54.7861121,27.2404595 C58.5616715,28.870773 60.0788345,31.8769027 59.1653826,35.9290865 C57.6507429,42.6550865 51.5581191,46.3590108 42.0091394,46.3590108 L42.0091394,46.3590108 Z" id="Fill-8" fill="#FEFEFE"></path>
                <path d="M76.51851,33.3806054 L76.5519443,23.2887351 L76.471828,23.2887351 L71.7235179,33.3806054 L76.51851,33.3806054 Z M70.79808,17.4231784 L85.377354,17.4231784 L88.4615161,44.2187459 L76.8295126,44.2187459 L76.696406,39.9133405 L68.5630245,39.9133405 L66.4547672,44.2187459 L55.6857487,44.2187459 L70.79808,17.4231784 Z" id="Fill-10" fill="#FEFEFE"></path>
                <path d="M73.9726411,31.9442584 L75.1024701,31.9442584 L75.110671,29.5255773 L73.9726411,31.9442584 Z M77.9342974,34.81708 L69.4741424,34.81708 L75.574967,21.8523881 L77.9778252,21.8523881 L77.9342974,34.81708 Z M78.2061882,42.7823989 L86.8656878,42.7823989 L84.1120842,18.859653 L71.6227732,18.859653 L58.131693,42.7823989 L65.5730463,42.7823989 L67.6813036,38.4769935 L78.0737124,38.4769935 L78.2061882,42.7823989 Z M90.0570922,45.6552205 L75.4519538,45.6552205 L75.3194781,41.3498151 L69.4451239,41.3498151 L67.3368666,45.6552205 L53.2401829,45.6552205 L69.9725036,15.9868314 L86.6423715,15.9868314 L90.0570922,45.6552205 Z" id="Fill-12" fill="#FEFEFE"></path>
                <path d="M28.6660536,35.238053 C27.2126051,41.6936097 21.5716606,44.9229827 13.0036324,44.9229827 C4.43749674,44.9229827 0.251893216,41.6936097 1.70660335,35.238053 L5.71620335,17.4232422 L16.9564571,17.4232422 L13.0458985,34.7909286 C12.5727707,36.9085503 13.4471108,37.7230692 14.6261452,37.7230692 C15.8058104,37.7230692 17.0491901,36.9085503 17.5273646,34.7909286 L21.4372923,17.4232422 L32.6756536,17.4232422 L28.6660536,35.238053 Z" id="Fill-14" fill="#D21244"></path>
                <path d="M49.23973,25.0314357 C49.5740737,23.3609384 48.7167662,22.8053816 47.2633177,22.8053816 C45.454708,22.8053816 44.5034058,23.5478249 44.3198322,24.3636195 C44.1009318,25.3280303 44.676886,25.7362465 45.7808507,26.0730249 C47.8089917,26.6649384 51.6116772,27.4086573 54.2189265,28.5567654 C57.4803538,29.9657492 58.5086181,32.3799654 57.7800014,35.6093384 C56.3013195,42.1771546 50.0270146,44.9230465 42.0097071,44.9230465 C35.1695415,44.9230465 29.3324067,42.9195978 30.9057142,35.9429276 L41.6747327,35.9429276 C41.5056684,36.684733 41.495575,37.4271762 41.8009001,37.9814573 C42.1175803,38.5032086 42.7515715,38.8380735 43.8113776,38.8380735 C45.4622781,38.8380735 46.7485547,37.8353924 47.0153988,36.6471005 C47.2418693,35.6456951 46.5315468,35.1258573 45.5392402,34.827987 L38.0650833,32.6032086 C33.975367,31.3760086 33.0045089,28.8922681 33.7823309,25.4377384 C35.0339115,19.8751546 40.4988525,16.7184951 48.7905741,16.7184951 C55.8654111,16.7184951 60.7007767,18.7965708 59.2990569,25.0314357 L49.23973,25.0314357 Z" id="Fill-16" fill="#D21244"></path>
                <path d="M76.51851,33.3806054 L76.5519443,23.2887351 L76.471828,23.2887351 L71.7235179,33.3806054 L76.51851,33.3806054 Z M70.79808,17.4231784 L85.377354,17.4231784 L88.4615161,44.2187459 L76.8295126,44.2187459 L76.696406,39.9133405 L68.5630245,39.9133405 L66.4547672,44.2187459 L55.6857487,44.2187459 L70.79808,17.4231784 Z" id="Fill-18" fill="#D21244"></path>
                <polygon id="Fill-20" fill="#FEFEFE" points="125.741649 24.8906649 118.907792 24.8906649 120.491193 17.8597784 145.136102 17.8597784 143.555855 24.8906649 136.718844 24.8906649 132.409596 44.0372811 121.432401 44.0372811"></polygon>
                <path d="M123.42654,42.42808 L131.139784,42.42808 L135.449663,23.2814638 L142.286043,23.2814638 L143.14272,19.4684692 L121.7605,19.4684692 L120.901931,23.2814638 L127.735788,23.2814638 L123.42654,42.42808 Z M133.678903,45.6459719 L119.438389,45.6459719 L123.747636,26.4993557 L116.913779,26.4993557 L119.221381,16.2505773 L147.12961,16.2505773 L144.826424,26.4993557 L137.988782,26.4993557 L133.678903,45.6459719 Z" id="Fill-22" fill="#FEFEFE"></path>
                <path d="M156.232525,28.7724822 C158.342044,28.7724822 160.032056,28.0810659 160.474273,26.1254551 C160.905765,24.2030119 159.57533,23.8030876 157.425438,23.8030876 L156.427453,23.8030876 L155.308349,28.7724822 L156.232525,28.7724822 Z M147.017889,17.8597146 L163.408296,17.8597146 C169.357089,17.8597146 172.467746,19.5614659 171.358104,24.4945038 C170.681216,27.5019092 168.824662,29.7866443 164.464317,30.728093 L164.448546,30.8020822 C167.086075,31.0195849 168.294128,32.1434551 168.384338,34.1366984 C168.488426,36.3869903 167.582544,40.0851741 167.959154,44.0372173 L157.210953,44.0372173 C157.000253,42.0809686 157.392003,38.7788822 157.516909,36.5311416 C157.581885,35.2254876 157.005931,34.7184065 155.238956,34.7184065 L153.972236,34.7184065 L151.875964,44.0372173 L141.127133,44.0372173 L147.017889,17.8597146 Z" id="Fill-24" fill="#FEFEFE"></path>
                <path d="M157.696256,25.4145211 L157.32217,27.0760886 C158.682885,26.8279697 158.845641,26.1091265 158.923234,25.7672454 C158.94279,25.6798616 158.952883,25.611613 158.958561,25.5593103 C158.790758,25.5044562 158.431181,25.4291914 157.696256,25.4145211 L157.696256,25.4145211 Z M156.232714,30.3813643 L153.314462,30.3813643 L155.157768,22.1940778 L157.424996,22.1940778 C158.918187,22.1940778 160.572873,22.3554508 161.517866,23.5520346 C162.119685,24.3142508 162.291273,25.2997103 162.026321,26.4809859 C161.696393,27.9390832 160.506635,30.3813643 156.232714,30.3813643 L156.232714,30.3813643 Z M158.742184,42.4282076 L166.279424,42.4282076 C166.249144,40.5300022 166.435872,38.7478832 166.59295,37.2476886 C166.720379,36.0313319 166.830145,34.9801751 166.794818,34.2122184 C166.764538,33.5329211 166.722272,32.6035914 164.319414,32.4052238 L162.517743,32.2566076 L163.121454,29.3729427 L164.132055,29.1548022 C167.480538,28.4314941 169.177489,26.9312995 169.806434,24.1375697 C170.128161,22.7081751 170.030381,21.6920995 169.508048,21.0306616 C168.689852,19.9935373 166.63774,19.4685968 163.408485,19.4685968 L148.287953,19.4685968 L143.120767,42.4282076 L150.606279,42.4282076 L152.701919,33.1093968 L155.238515,33.1093968 C156.230821,33.1093968 157.478617,33.2254832 158.327724,34.1286616 C158.904309,34.7416238 159.158536,35.5535914 159.106177,36.6124022 C159.071481,37.2400346 159.017229,37.9378292 158.960453,38.6643265 C158.863304,39.9157643 158.756693,41.2813751 158.742184,42.4282076 L158.742184,42.4282076 Z M169.711177,45.6460995 L155.784189,45.6460995 L155.629634,44.2116022 C155.459308,42.6342292 155.633419,40.3909535 155.787974,38.4123805 C155.842857,37.7101211 155.895216,37.03784 155.92802,36.4408238 C155.929281,36.4165859 155.930543,36.3942616 155.930543,36.3744886 C155.796806,36.3508886 155.579798,36.3272886 155.2423,36.3272886 L153.146029,45.6460995 L139.133246,45.6460995 L145.748203,16.2507049 L163.408485,16.2507049 C167.773877,16.2507049 170.502247,17.1315589 171.995438,19.0233859 C173.144192,20.4789319 173.452041,22.4396454 172.909521,24.8513103 C172.300763,27.554467 170.906614,29.5413319 168.681021,30.8527265 C169.669542,31.8739049 169.932601,33.1483049 169.973606,34.0629643 C170.020918,35.075213 169.899167,36.239267 169.757859,37.5863805 C169.557884,39.4947914 169.330783,41.6576995 169.542744,43.8824778 L169.711177,45.6460995 Z" id="Fill-26" fill="#FEFEFE"></path>
                <polygon id="Fill-28" fill="#FEFEFE" points="175.922462 17.8594595 186.901549 17.8594595 181.009531 44.0369622 170.031075 44.0369622"></polygon>
                <path d="M172.025024,42.42808 L179.73953,42.42808 L184.907347,19.4684692 L177.19221,19.4684692 L172.025024,42.42808 Z M182.27928,45.6459719 L168.037504,45.6459719 L174.653091,16.2505773 L188.895499,16.2505773 L182.27928,45.6459719 Z" id="Fill-30" fill="#FEFEFE"></path>
                <path d="M202.392635,33.4491092 L202.423546,23.5874984 L202.348476,23.5874984 L197.709301,33.4491092 L202.392635,33.4491092 Z M196.801526,17.8597146 L211.043303,17.8597146 L214.059334,44.0372173 L202.696698,44.0372173 L202.566115,39.8300389 L194.624508,39.8300389 L192.562933,44.0372173 L182.045618,44.0372173 L196.801526,17.8597146 Z" id="Fill-32" fill="#FEFEFE"></path>
                <path d="M200.228485,31.840227 L200.806332,31.840227 L200.810117,30.6034595 L200.228485,31.840227 Z M203.978811,35.0581189 L195.190621,35.0581189 L201.343174,21.9786162 L204.019816,21.9786162 L203.978811,35.0581189 Z M204.238716,42.4283351 L212.272425,42.4283351 L209.626064,19.4687243 L197.725955,19.4687243 L184.784334,42.4283351 L191.575294,42.4283351 L193.636869,38.2211568 L204.108133,38.2211568 L204.238716,42.4283351 Z M215.846748,45.646227 L201.155185,45.646227 L201.024602,41.4390486 L195.61202,41.4390486 L193.550445,45.646227 L179.307407,45.646227 L195.876972,16.2508324 L212.460415,16.2508324 L215.846748,45.646227 Z" id="Fill-34" fill="#FEFEFE"></path>
                <polygon id="Fill-36" fill="#FEFEFE" points="222.283746 24.8906649 215.451781 24.8906649 217.035182 17.8597784 241.67946 17.8597784 240.098583 24.8906649 233.262833 24.8906649 228.955478 44.0372811 217.975129 44.0372811"></polygon>
                <path d="M219.969205,42.42808 L227.685603,42.42808 L231.993589,23.2814638 L238.828708,23.2814638 L239.686015,19.4684692 L218.304426,19.4684692 L217.445857,23.2814638 L224.277821,23.2814638 L219.969205,42.42808 Z M230.225353,45.6459719 L215.981053,45.6459719 L220.28967,26.4993557 L213.457705,26.4993557 L215.765307,16.2505773 L243.672905,16.2505773 L241.369088,26.4993557 L234.532708,26.4993557 L230.225353,45.6459719 Z" id="Fill-38" fill="#FEFEFE"></path>
                <polygon id="Fill-40" fill="#FEFEFE" points="255.501225 34.3909405 250.816629 34.3909405 248.649704 44.0369622 237.671248 44.0369622 243.560742 17.8594595 254.536675 17.8594595 252.547646 26.7081838 257.229718 26.7081838 259.221902 17.8594595 270.202881 17.8594595 264.312125 44.0369622 253.330515 44.0369622"></polygon>
                <path d="M255.324464,42.42808 L263.042124,42.42808 L268.208679,19.4684692 L260.49165,19.4684692 L258.499467,28.3171935 L250.554075,28.3171935 L252.543104,19.4684692 L244.830491,19.4684692 L239.665828,42.42808 L247.379072,42.42808 L249.546628,32.7820584 L257.495175,32.7820584 L255.324464,42.42808 Z M265.581874,45.6459719 L251.336313,45.6459719 L253.507023,35.9999503 L252.087009,35.9999503 L249.920084,45.6459719 L235.677046,45.6459719 L242.291372,16.2505773 L256.529994,16.2505773 L254.541596,25.0993016 L255.960348,25.0993016 L257.952531,16.2505773 L272.196831,16.2505773 L265.581874,45.6459719 Z" id="Fill-42" fill="#FEFEFE"></path>
                <polygon id="Fill-44" fill="#FEFEFE" points="273.922423 17.8594595 284.900248 17.8594595 280.592893 37.0035243 290.688808 37.0035243 289.102884 44.0369622 268.030405 44.0369622"></polygon>
                <path d="M270.02467,42.42808 L287.833829,42.42808 L288.694291,38.6125341 L278.599007,38.6125341 L282.906362,19.4684692 L275.191856,19.4684692 L270.02467,42.42808 Z M290.372318,45.6459719 L266.036518,45.6459719 L272.652737,16.2505773 L286.894513,16.2505773 L282.587158,35.3946422 L292.683704,35.3946422 L290.372318,45.6459719 Z" id="Fill-46" fill="#FEFEFE"></path>
                <path d="M305.952162,37.9102746 C307.64659,37.9102746 309.115179,37.0032692 310.475263,30.9463611 C311.80696,25.0374314 310.849981,23.9888259 309.084268,23.9888259 C307.319817,23.9888259 305.895387,25.0374314 304.564952,30.9463611 C303.203605,37.0032692 304.267827,37.9102746 305.952162,37.9102746 M310.619094,17.1690638 C320.179429,17.1690638 323.674897,22.7903286 321.8379,30.9463611 C320.004056,39.1062205 313.97704,44.7249341 304.421752,44.7249341 C294.863309,44.7249341 291.370365,39.1062205 293.203577,30.9463611 C295.038051,22.7903286 301.063175,17.1690638 310.619094,17.1690638" id="Fill-48" fill="#FEFEFE"></path>
                <path d="M305.654029,36.2795146 C305.704496,36.28972 305.797229,36.3012011 305.952414,36.3012011 C306.500612,36.3012011 307.640534,36.3012011 308.923657,30.5900011 C309.765824,26.853547 309.486994,25.838747 309.387953,25.6218822 C309.338747,25.6110389 309.244753,25.5976443 309.083889,25.5976443 C308.537584,25.5976443 307.401447,25.5976443 306.115801,31.3031038 C305.282466,35.0146822 305.552464,36.0505308 305.654029,36.2795146 M305.952414,39.519093 C305.500735,39.519093 304.126772,39.519093 303.189979,38.3327146 C302.129542,36.9900659 302.078444,34.7467903 303.012714,30.5900011 C304.122987,25.6620659 305.580221,22.3797524 309.083889,22.3797524 C310.296989,22.3797524 311.228735,22.7815903 311.854525,23.5744227 C312.912439,24.9151578 312.962275,27.1539686 312.026744,31.3037416 C310.919625,36.2348659 309.462392,39.519093 305.952414,39.519093 M310.619347,18.77852 C302.328256,18.77852 296.546004,23.3435254 294.755688,31.3031038 C294.174057,33.8908119 293.896488,37.5035254 295.878578,40.0134173 C297.503614,42.07172 300.378339,43.1158605 304.422004,43.1158605 C312.714987,43.1158605 318.497239,38.5502173 320.285662,30.5900011 C320.868555,28.0029308 321.147385,24.3934065 319.165926,21.8828768 C317.540259,19.8226605 314.664904,18.77852 310.619347,18.77852 M304.422004,46.3337524 C299.361429,46.3337524 295.650846,44.8826714 293.391819,42.0213308 C291.197768,39.2429092 290.595949,35.2895903 291.65197,30.5900011 C293.768429,21.1787038 300.859036,15.5606281 310.619347,15.5606281 C315.681814,15.5606281 319.393659,17.012347 321.653317,19.8756011 C323.846737,22.6552984 324.447294,26.6073416 323.388749,31.3037416 C321.274814,40.7144011 314.183576,46.3337524 304.422004,46.3337524" id="Fill-50" fill="#FEFEFE"></path>
                <polygon id="Fill-52" fill="#FEFEFE" points="327.513982 17.8594595 340.676396 17.8594595 342.983998 33.7033514 343.062852 33.7033514 346.627712 17.8594595 355.5345 17.8594595 349.643744 44.0369622 336.476283 44.0369622 334.194546 28.0808108 334.114429 28.0808108 330.523074 44.0369622 321.620702 44.0369622"></polygon>
                <path d="M337.853779,42.42808 L348.374247,42.42808 L353.540172,19.4684692 L347.897335,19.4684692 L344.333106,35.3123611 L341.610413,35.3123611 L339.302811,19.4684692 L328.783604,19.4684692 L323.615157,42.42808 L329.252947,42.42808 L332.844933,26.4719286 L335.572041,26.4719286 L337.853779,42.42808 Z M350.913366,45.6459719 L335.098913,45.6459719 L333.814529,36.6645773 L331.792697,45.6459719 L319.626374,45.6459719 L326.244485,16.2505773 L342.050106,16.2505773 L343.350261,25.1732908 L345.358216,16.2505773 L357.528323,16.2505773 L350.913366,45.6459719 Z" id="Fill-54" fill="#FEFEFE"></path>
                <polygon id="Fill-56" fill="#002A5C" points="125.741649 24.8906649 118.907792 24.8906649 120.491193 17.8597784 145.136102 17.8597784 143.555855 24.8906649 136.718844 24.8906649 132.409596 44.0372811 121.432401 44.0372811"></polygon>
                <path d="M156.232525,28.7724822 C158.342044,28.7724822 160.032056,28.0810659 160.474273,26.1254551 C160.905765,24.2030119 159.57533,23.8030876 157.425438,23.8030876 L156.427453,23.8030876 L155.308349,28.7724822 L156.232525,28.7724822 Z M147.017889,17.8597146 L163.408296,17.8597146 C169.357089,17.8597146 172.467746,19.5614659 171.358104,24.4945038 C170.681216,27.5019092 168.824662,29.7866443 164.464317,30.728093 L164.448546,30.8020822 C167.086075,31.0195849 168.294128,32.1434551 168.384338,34.1366984 C168.488426,36.3869903 167.582544,40.0851741 167.959154,44.0372173 L157.210953,44.0372173 C157.000253,42.0809686 157.392003,38.7788822 157.516909,36.5311416 C157.581885,35.2254876 157.005931,34.7184065 155.238956,34.7184065 L153.972236,34.7184065 L151.875964,44.0372173 L141.127133,44.0372173 L147.017889,17.8597146 Z" id="Fill-58" fill="#002A5C"></path>
                <polygon id="Fill-60" fill="#002A5C" points="175.922462 17.8594595 186.901549 17.8594595 181.009531 44.0369622 170.031075 44.0369622"></polygon>
                <path d="M202.392635,33.4491092 L202.423546,23.5874984 L202.348476,23.5874984 L197.709301,33.4491092 L202.392635,33.4491092 Z M196.801526,17.8597146 L211.043303,17.8597146 L214.059334,44.0372173 L202.696698,44.0372173 L202.566115,39.8300389 L194.624508,39.8300389 L192.562933,44.0372173 L182.045618,44.0372173 L196.801526,17.8597146 Z" id="Fill-62" fill="#002A5C"></path>
                <polygon id="Fill-64" fill="#002A5C" points="222.283746 24.8906649 215.451781 24.8906649 217.035182 17.8597784 241.67946 17.8597784 240.098583 24.8906649 233.262833 24.8906649 228.955478 44.0372811 217.975129 44.0372811"></polygon>
                <polygon id="Fill-66" fill="#002A5C" points="255.501225 34.3909405 250.816629 34.3909405 248.649704 44.0369622 237.671248 44.0369622 243.560742 17.8594595 254.536675 17.8594595 252.547646 26.7081838 257.229718 26.7081838 259.221902 17.8594595 270.202881 17.8594595 264.312125 44.0369622 253.330515 44.0369622"></polygon>
                <polygon id="Fill-68" fill="#002A5C" points="273.922423 17.8594595 284.900248 17.8594595 280.592893 37.0035243 290.688808 37.0035243 289.102884 44.0369622 268.030405 44.0369622"></polygon>
                <path d="M305.952162,37.9102746 C307.64659,37.9102746 309.115179,37.0032692 310.475263,30.9463611 C311.80696,25.0374314 310.849981,23.9888259 309.084268,23.9888259 C307.319817,23.9888259 305.895387,25.0374314 304.564952,30.9463611 C303.203605,37.0032692 304.267827,37.9102746 305.952162,37.9102746 M310.619094,17.1690638 C320.179429,17.1690638 323.674897,22.7903286 321.8379,30.9463611 C320.004056,39.1062205 313.97704,44.7249341 304.421752,44.7249341 C294.863309,44.7249341 291.370365,39.1062205 293.203577,30.9463611 C295.038051,22.7903286 301.063175,17.1690638 310.619094,17.1690638" id="Fill-70" fill="#002A5C"></path>
                <polygon id="Fill-72" fill="#002A5C" points="327.513982 17.8594595 340.676396 17.8594595 342.983998 33.7033514 343.062852 33.7033514 346.627712 17.8594595 355.5345 17.8594595 349.643744 44.0369622 336.476283 44.0369622 334.194546 28.0808108 334.114429 28.0808108 330.523074 44.0369622 321.620702 44.0369622"></polygon>
                <path d="M96.867293,35.5320962 C87.3164208,16.8294151 70.344382,11.6865286 49.9090481,13.6459665 L51.4773089,10.9440854 C51.7952507,10.394907 58.2323115,6.37837838e-05 84.2688472,6.37837838e-05 C99.5786305,6.37837838e-05 104.338927,4.52871243 117.10896,7.81230162 C126.209415,10.1480638 135.494704,9.23021514 144.723219,10.2277935 C144.683476,10.2443773 153.131015,11.5570476 152.90139,11.5308962 L145.25943,13.4169827 C126.992914,17.4219665 110.104777,27.5776205 99.8259186,43.4042908 C99.8259186,43.4042908 98.268382,38.2728854 96.867293,35.5320962" id="Fill-74" fill="#FEFEFE"></path>
                <path d="M138.0759,11.3727124 C106.047675,19.1887773 95.4060853,23.4208314 92.4745857,24.7762368 C97.2967038,30.0517935 99.7639073,35.4185611 100.725934,37.88508 C111.398434,23.9789395 127.077257,17.1591773 136.722124,14.0835232 C139.297832,13.2141503 142.02494,12.4379016 144.907234,11.7841178 C143.328249,11.5991449 138.0759,11.3727124 138.0759,11.3727124" id="Fill-76" fill="#D21244"></path>
                <path d="M123.238614,10.8270422 C111.350491,11.0062746 87.4209505,13.6348043 79.2705364,15.4488151 C84.1122104,17.6078962 87.9842879,20.4743395 91.0451091,23.4753665 C94.7247813,21.7551178 106.358047,16.7857232 133.226656,11.6083935 C131.28494,11.4897557 126.324038,11.3130746 123.238614,10.8270422" id="Fill-78" fill="#D21244"></path>
                <path d="M70.3453283,9.37449405 L68.5783538,12.0068508 L68.6294516,8.82659135 L65.6077424,7.93808324 L68.6155732,7.00620216 L68.5165318,3.82721838 L70.3213565,6.43087243 L73.2831362,5.35165081 L71.3918869,7.89343459 L73.3216173,10.4046022 L70.3453283,9.37449405 Z M92.5034781,3.13835351 L94.1802428,5.55512108 L96.9294305,4.55180216 L95.1744419,6.91052649 L96.962234,9.2437373 L94.202953,8.28570486 L92.5608842,10.7298995 L92.6107204,7.77479676 L89.806019,6.95389946 L92.5987344,6.08580216 L92.5034781,3.13835351 Z M75.3939168,8.12752108 L79.5870904,6.82569405 L79.4470446,2.39335892 L81.9647151,6.02456973 L86.0935433,4.52118595 L83.4591679,8.06501297 L86.1509494,11.5661049 L82.0000419,10.1296941 L79.6249406,13.6639535 C88.6452789,12.0368292 107.128803,10.0346562 118.44665,9.61240757 C107.087799,6.93412649 101.329519,1.6445373 85.1681054,1.6445373 C59.8053036,1.6445373 53.963753,11.7242886 53.963753,11.7242886 C63.074301,10.8504508 70.5326869,12.0157805 76.6076472,14.2801049 C77.4050252,14.0913049 78.3948085,13.8891103 79.5359926,13.6824508 L79.6034922,9.36556432 L75.3939168,8.12752108 Z" id="Fill-80" fill="#002A5C"></path>
                <path d="M79.6249406,13.6636984 C79.5959221,13.6700768 79.5662728,13.6764551 79.5359926,13.6821957 L79.5347309,13.8008335 L79.6249406,13.6636984 Z" id="Fill-82" fill="#FEFEFE"></path>
            </g>
        </g>
    </g>
</svg>